<svg width="50" height="50" viewBox="0 0 50 50" fill="none" xmlns="http://www.w3.org/2000/svg">
<path d="M25 0C38.8071 0 50 11.1929 50 25C50 38.8071 38.8071 50 25 50C11.1929 50 0 38.8071 0 25C1.6493e-05 11.1929 11.1929 0 25 0ZM29.0996 18.6133C27.8238 17.5557 25.5702 17.7631 22.8438 19.3184C21.3314 20.1789 19.7164 21.5788 17.916 23.5693C17.4092 24.1419 17.4913 25.0238 18.0957 25.4922L19.2139 26.3584C19.719 26.7497 20.4366 26.7055 20.8896 26.2549C21.7538 25.4048 22.34 24.8547 22.7412 24.4814C20.3645 32.3613 19.2022 37.2658 19.2021 39.4639C19.2021 40.4592 19.4902 41.289 20.0664 41.9111C20.6528 42.5537 21.4657 42.8857 22.4121 42.8857C23.3277 42.8857 24.3874 42.5329 25.6631 41.7969C26.8154 41.1333 28.5441 39.6918 30.9619 37.4004C31.5021 36.8842 31.5077 36.0235 30.9746 35.5L29.9971 34.5391C29.5041 34.0549 28.7191 34.0364 28.2041 34.4971C27.1136 35.5441 26.3426 36.2083 25.8281 36.623C26.075 35.2545 26.733 32.5483 28.2969 27.2295C29.8607 21.952 29.9941 21.0288 29.9941 20.583C29.9941 19.7951 29.6654 19.0902 29.0996 18.6133ZM32.1445 8.0166C30.879 6.70021 28.5845 6.84522 27.2266 8.31738C26.5168 9.10529 26.1573 10.0593 26.1572 11.1582C26.1572 12.0602 26.4453 12.8482 27.0215 13.46C27.6079 14.082 28.3585 14.4032 29.2227 14.4033C29.9222 14.4033 30.9617 14.1862 31.9082 13.1289C32.6489 12.3202 33.0195 11.3556 33.0195 10.2773C33.0195 9.39604 32.7207 8.61796 32.1445 8.0166Z" fill="#3A9F7F"/>
</svg>
