<svg width="50" height="58" viewBox="0 0 50 58" fill="none" xmlns="http://www.w3.org/2000/svg">
<path d="M46.6895 48.5156L46.7148 55.1377V55.2363C46.6409 55.2731 46.6406 55.2851 46.6406 55.334C46.6406 55.3708 46.6399 55.4079 46.6152 55.457V55.5312C46.6151 55.5679 46.5915 55.6046 46.5791 55.6533L46.5537 55.7275C46.5291 55.7644 46.5166 55.8015 46.5166 55.8506C46.4922 55.875 46.4922 55.8876 46.4922 55.9121C46.4676 55.9489 46.4552 56.0101 46.4307 56.0469C46.4307 56.0469 46.43 56.0717 46.4053 56.084C46.0717 56.7104 45.3927 57.1035 44.6641 57.1035H38.9473V56.9443L38.9219 48.5234H33.2744L33.2988 56.9443V57.1035L27.8584 57.0791L27.834 48.5234H22.1855L22.2109 57.0547L16.6221 57.0303L16.5977 48.499H10.9492L10.9736 57.0176H5.30664C4.51603 57.0176 3.78671 56.5507 3.49023 55.8135C3.39144 55.5801 3.33008 55.2974 3.33008 55.0518V52.1025H3.30469V46.7217L3.28027 40.7627H3.30469V36.1299H46.6895V48.5156ZM27.9395 0C29.5006 0 30.75 1.25448 30.75 2.82227V16.4072H40.3145C41.8756 16.4072 43.6431 17.5537 44.2676 18.915L49.7803 30.6084C50.3971 32.0538 49.6665 33.2089 48.1055 33.209H1.8418C0.280772 33.2089 -0.442181 32.0614 0.28125 30.7002L5.6875 19.0068C6.31191 17.6457 8.07862 16.4983 9.63965 16.498H19.5176V2.92188C19.5176 1.25472 20.8651 8.04926e-05 22.3271 0H27.9395Z" fill="#3A9F7F"/>
</svg>
