<svg width="21" height="36" viewBox="0 0 21 36" fill="none" xmlns="http://www.w3.org/2000/svg">
<path d="M20.3478 18.0022C20.3436 19.0217 19.9263 19.9928 19.1982 20.6783L3.86604 35.3639C2.95488 36.212 1.57111 36.212 0.66421 35.3639C0.242692 34.9728 0 34.4148 0 33.8259C0 33.2415 0.242692 32.6834 0.66421 32.2923L15.5877 17.9978L0.66421 3.70327C0.242692 3.31218 0 2.7541 0 2.16967C0 1.58523 0.242692 1.02716 0.66421 0.63607C1.57537 -0.212023 2.95488 -0.212023 3.86604 0.63607L19.1897 15.3173C19.9221 16.0072 20.3393 16.9827 20.3478 18.0022Z" fill="#6E6E6E"/>
</svg>
