<svg width="22" height="38" viewBox="0 0 22 38" fill="none" xmlns="http://www.w3.org/2000/svg">
<path d="M0.700026 18.7024C0.704285 19.7219 1.12154 20.693 1.84962 21.3785L17.1818 36.0641C18.093 36.9122 19.4767 36.9122 20.3836 36.0641C20.8052 35.673 21.0479 35.115 21.0479 34.5261C21.0479 33.9417 20.8052 33.3836 20.3836 32.9925L5.4602 18.698L20.3836 4.40346C20.8052 4.01237 21.0479 3.4543 21.0479 2.86986C21.0479 2.28543 20.8052 1.72735 20.3836 1.33626C19.4725 0.488172 18.093 0.488172 17.1818 1.33626L1.85814 16.0175C1.1258 16.7074 0.708542 17.6829 0.700026 18.7024Z" fill="#3A9F7F" stroke="#3A9F7F" stroke-width="1.4"/>
</svg>
