<svg width="132" height="102" viewBox="0 0 132 102" fill="none" xmlns="http://www.w3.org/2000/svg">
<path fill-rule="evenodd" clip-rule="evenodd" d="M96.1645 0.5C117.849 4.08356 130.71 10.8636 130.711 19.0877V80.4146C130.479 84.6426 127.341 88.2262 121.219 91.3973C121.219 91.6034 121.219 91.6035 121.013 91.6035C118.081 92.8668 115.122 93.9234 111.958 95.1867C100.151 98.7703 80.6016 101.117 63.5215 101.323C32.9626 100.885 1.14328 93.7176 0.5 80.8271V19.5002C0.500239 11.0699 13.9794 4.08358 36.7185 0.706266C37.3615 0.474339 38.0046 0.706336 38.4161 1.1188C38.8532 1.55706 39.0587 2.17591 39.0587 2.8203V34.2993C45.155 35.15 55.0585 36.0007 65.6049 36.0008C74.8651 36.0008 84.5628 35.3562 88.9873 34.2993C90.6593 34.0672 92.3573 33.8606 93.8235 33.6544V2.61404C93.8235 1.96952 94.0553 1.32503 94.4668 0.912532C94.9041 0.500033 95.5214 0.5 96.1645 0.5ZM126.518 27.3123C114.274 37.8826 81.8362 40.409 65.6049 40.409C49.1936 40.409 17.1432 37.8824 4.71887 27.3123V48.4864H4.7296V72.0673H4.71887V80.8271C4.92494 88.4325 30.0307 97.0953 65.4255 97.0953H65.631C82.6854 97.0953 99.1224 94.9808 110.723 91.3973C113.887 90.3402 116.64 89.2828 119.367 88.0196H119.572C123.996 85.6735 126.518 83.1473 126.518 80.8271V27.3123ZM34.8398 5.34687C14.4161 8.72416 4.92418 14.8597 4.7181 19.5002C4.7181 27.3377 27.2515 32.3911 34.8398 33.8607V5.34687ZM97.8361 33.4481C105.862 31.9785 126.517 27.1056 126.285 19.5002V19.294C126.079 15.0659 117.231 8.95572 97.8361 5.57844V33.4481Z" fill="#333333" stroke="#333333"/>
<path d="M59.2767 82.8488C59.9198 82.8488 60.5372 82.6425 61.1803 82.2043L79.0836 71.866C80.344 71.2215 80.9871 69.7519 80.9871 68.4887C80.9871 67.0191 80.1382 65.7301 79.0836 65.1113L61.386 54.541C60.1256 53.8965 58.6594 53.8965 57.3732 54.541C56.1128 55.1855 55.4697 56.4488 55.4697 57.9184V78.6207C55.4697 80.0902 56.1128 81.3535 57.3732 81.998C58.0163 82.6425 58.6594 82.8488 59.2767 82.8488ZM59.714 58.5629L76.7942 68.4887L59.714 78.4144V58.5629Z" fill="#333333" stroke="#333333"/>
</svg>
