<svg width="28" height="28" viewBox="0 0 28 28" fill="none" xmlns="http://www.w3.org/2000/svg">
<path d="M1.54546 15.4558C2.4736 15.4558 3.09048 16.0727 3.09048 17.0008V22.564L8.3424 17.3121C8.95928 16.6952 9.88742 16.6952 10.5043 17.3121C11.1212 17.929 11.1212 18.8571 10.5043 19.474L5.25237 24.7259H10.8156C11.7437 24.7259 12.3606 25.3428 12.3606 26.2709C12.3606 27.1991 11.7437 27.816 10.8156 27.816H1.54546C0.61732 27.816 0.00044632 27.1991 0.00044632 26.2709V17.0008C0.00044632 16.0727 0.61732 15.4558 1.54546 15.4558ZM17.0013 0H26.2714C27.1995 0 27.8164 0.616875 27.8164 1.54502V10.8151C27.8164 11.7433 27.1995 12.3601 26.2714 12.3601C25.3432 12.3601 24.7264 11.7433 24.7264 10.8151V5.25192L19.4744 10.5038C18.8576 11.1207 17.9294 11.1207 17.3126 10.5038C16.6957 9.88698 16.6957 8.95883 17.3126 8.34196L22.5645 3.09003H17.0013C16.0731 3.09003 15.4563 2.47316 15.4563 1.54502C15.4506 0.616875 16.0731 0 17.0013 0Z" fill="#666666"/>
</svg>
