<svg width="94" height="88" viewBox="0 0 94 88" fill="none" xmlns="http://www.w3.org/2000/svg">
<path d="M2 2H19.1346V77.4327C19.1346 82.1643 15.2989 86 10.5673 86V86C5.83571 86 2 82.1643 2 77.4327V2Z" stroke="black" stroke-width="4"/>
<path d="M19.1346 2H36.2692V74.5749C36.2692 75.0419 35.7559 75.3403 35.343 75.1222C33.7574 74.285 30.4277 72.7212 27.6764 72.7212C25.2908 72.7212 21.5336 73.5561 19.1346 77.9793V2Z" stroke="black" stroke-width="4"/>
<path d="M91.269 2H74.1345V77.4327C74.1345 82.1643 77.9702 86 82.7018 86V86C87.4333 86 91.269 82.1643 91.269 77.4327V2Z" stroke="black" stroke-width="4"/>
<path d="M74.1344 2H56.9998V74.5749C56.9998 75.0419 57.5131 75.3403 57.9261 75.1222C59.5117 74.285 62.8413 72.7212 65.5927 72.7212C67.9782 72.7212 71.7354 73.5561 74.1344 77.9793V2Z" stroke="black" stroke-width="4"/>
<path d="M2 2H91.269" stroke="black" stroke-width="4"/>
</svg>
