<svg width="70" height="103" viewBox="0 0 70 103" fill="none" xmlns="http://www.w3.org/2000/svg">
<path d="M34.8652 1.7998C52.7382 1.80662 67.4402 16.7054 67.9092 35.3271L67.9209 36.2168C67.9206 44.5842 64.9923 52.6415 59.6982 58.9082C58.6121 60.192 57.5979 61.3242 56.6475 62.375H56.6465C54.6822 64.5475 53.073 66.3047 52.0225 68.3496C50.9272 70.4816 50.4873 72.8048 50.4873 76.084V77.9062H19.2344V76.084C19.2343 72.6784 18.8377 70.311 17.7012 68.1201C16.614 66.0246 14.896 64.2114 12.6904 61.8496L10.9365 59.9629C5.2682 53.7762 2.03535 45.7185 1.8125 37.1797L1.7998 36.3516C1.74216 17.8048 16.1709 2.3747 33.8154 1.81445L34.8652 1.7998Z" stroke="black" stroke-width="3.6" stroke-linejoin="round"/>
<path d="M24.402 99.1353C24.402 97.4304 25.784 96.0483 27.4889 96.0483H42.2328C43.9376 96.0483 45.3197 97.4304 45.3197 99.1353C45.3197 100.84 43.9376 102.222 42.2328 102.222H27.4889C25.784 102.222 24.402 100.84 24.402 99.1353Z" fill="black"/>
<path d="M17.434 88.2403C17.434 86.5354 18.816 85.1533 20.5209 85.1533H49.1998C50.9047 85.1533 52.2867 86.5354 52.2867 88.2403C52.2867 89.9451 50.9047 91.3272 49.1998 91.3272H20.5209C18.816 91.3272 17.434 89.9451 17.434 88.2403Z" fill="black"/>
<path d="M13.9354 36.2313C13.9354 24.2487 23.3264 14.4862 34.8532 14.502" stroke="black" stroke-width="2.5" stroke-linecap="round"/>
</svg>
