<svg width="54" height="51" viewBox="0 0 54 51" fill="none" xmlns="http://www.w3.org/2000/svg">
<path d="M51.2545 20.3508C50.9587 18.7963 50.0132 17.7929 48.8416 17.7929C48.8242 17.7929 48.8126 17.7929 48.801 17.7929H48.5864C45.1932 17.7929 42.4323 15.032 42.4323 11.6388C42.4323 10.5368 42.966 9.30133 42.966 9.28973C43.575 7.92087 43.1052 6.2446 41.8813 5.38616L41.8059 5.33396L35.5706 1.87122L35.4894 1.83641C35.0834 1.66241 34.6368 1.5696 34.167 1.5696C33.2041 1.5696 32.2529 1.95822 31.6265 2.60205C30.9478 3.31548 28.5871 5.32816 26.7717 5.32816C24.9388 5.32816 22.5665 3.27488 21.8763 2.55564C21.2556 1.89442 20.2986 1.5 19.3242 1.5C18.8601 1.5 18.4251 1.587 18.0249 1.75521L17.9437 1.79001L11.488 5.33976L11.4126 5.39196C10.183 6.2446 9.71315 7.92667 10.3164 9.28973C10.3222 9.30133 10.8558 10.531 10.8558 11.6388C10.8558 15.032 8.09488 17.7929 4.70174 17.7929H4.48713C4.46973 17.7929 4.45812 17.7929 4.44072 17.7929C3.26907 17.7929 2.32363 18.7963 2.02782 20.3508C2.00462 20.4668 1.5 23.1639 1.5 25.2752C1.5 27.3865 2.00462 30.0836 2.02782 30.1996C2.32363 31.7541 3.26907 32.7575 4.44072 32.7575C4.45812 32.7575 4.46973 32.7575 4.48133 32.7575H4.69594C8.08908 32.7575 10.85 35.5184 10.85 38.9116C10.85 40.0136 10.3164 41.2491 10.3164 41.2607C9.70735 42.6295 10.1772 44.3058 11.401 45.1642L11.4764 45.2164L17.5957 48.6386L17.6711 48.6734C18.0771 48.8532 18.5179 48.9402 18.9877 48.9402C19.968 48.9402 20.9192 48.5342 21.5456 47.8614C22.4157 46.9159 24.7706 44.967 26.5107 44.967C28.3957 44.967 30.8144 47.1537 31.5105 47.9194C32.1369 48.6096 33.0939 49.0156 34.0858 49.0214C34.544 49.0214 34.979 48.9344 35.3792 48.7604L35.4604 48.7256L41.8001 45.2222L41.8755 45.17C43.1052 44.3116 43.575 42.6353 42.966 41.2723C42.9602 41.2607 42.4265 40.0136 42.4265 38.9232C42.4265 35.53 45.1874 32.7691 48.5806 32.7691H48.7894C48.801 32.7691 48.8184 32.7691 48.83 32.7691C50.0075 32.7691 50.9529 31.7657 51.2487 30.217C51.2545 30.188 51.7765 27.4561 51.7765 25.2926C51.7823 23.1523 51.2777 20.461 51.2545 20.3508ZM35.4372 25.2404C35.4372 20.3334 31.4409 16.337 26.5339 16.337C21.6269 16.337 17.6305 20.3334 17.6305 25.2404C17.6305 30.1474 21.6269 34.1438 26.5339 34.1438C31.4467 34.1438 35.4372 30.1532 35.4372 25.2404Z" stroke="#333333" stroke-width="3"/>
</svg>
